# xmcd CD database file
#
# Track frame offsets:
#	150
#	13489
#	26879
#	44539
#	55951
#	67194
#	82285
#	97392
#	108036
#	124125
#	139715
#	152061
#	167293
#	180931
#	199221
#	214761
#	228443
#	241470
#	257137
#	272703
#
# Disc length: 3802 seconds
#
# Revision: 0
# Processed by: cddbd v1.5.2PL0 Copyright (c) Steve Scherf et al.
# Submitted via: CDex 1.70beta2
#
DISCID=2b0ed814
DTITLE=Eastman, Eddie - Cdn. - The Winning Side
DYEAR=1900
DGENRE=Country
TTITLE0=Liftin' Me Up Lettin' Me Down
TTITLE1=I Just Can't Stop Missing You
TTITLE2=It Will Never Be the Same Again
TTITLE3=Give and Take
TTITLE4=That's All I Want From You
TTITLE5=Lonely Eyes
TTITLE6=Wasn't It Supposed To Be Me
TTITLE7=How Deep In Love Am I
TTITLE8=Your Used To Be
TTITLE9=Thirteen Steps
TTITLE10=Take A Chance With Me
TTITLE11=Undercover Lovers
TTITLE12=How Close Am I To Losing You
TTITLE13=The Winning Side
TTITLE14=We're Catching Heaven Tonight
TTITLE15=Mountains Too High to Climb
TTITLE16=Dreaming All Over Again
TTITLE17=If You Could Feel What I'm Thinking Tonight
TTITLE18=You Gave the World To Mr
TTITLE19=Don't Hold Back
EXTD=
EXTT0=
EXTT1=
EXTT2=
EXTT3=
EXTT4=
EXTT5=
EXTT6=
EXTT7=
EXTT8=
EXTT9=
EXTT10=
EXTT11=
EXTT12=
EXTT13=
EXTT14=
EXTT15=
EXTT16=
EXTT17=
EXTT18=
EXTT19=
PLAYORDER=
